<svg class="animated" id="freepik_stories-video-tutorial" xmlns="http://www.w3.org/2000/svg" viewBox="0 0 500 500" version="1.1" xmlns:xlink="http://www.w3.org/1999/xlink" xmlns:svgjs="http://svgjs.com/svgjs"><style>svg#freepik_stories-video-tutorial:not(.animated) .animable {opacity: 0;}svg#freepik_stories-video-tutorial.animated #freepik--Character--inject-6 {animation: 3s Infinite  linear floating;animation-delay: 0s;}            @keyframes floating {                0% {                    opacity: 1;                    transform: translateY(0px);                }                50% {                    transform: translateY(-10px);                }                100% {                    opacity: 1;                    transform: translateY(0px);                }            }        .animator-hidden { display: none; }</style><g id="freepik--Shadow--inject-6" class="animable animator-hidden" style="transform-origin: 250px 449.41px;"><g id="freepik--Shadow--inject-58--inject-6" class="animable" style="transform-origin: 250px 449.41px;"><ellipse id="freepik--path--inject-58--inject-6" cx="250" cy="449.41" rx="193.89" ry="11.32" style="fill: rgb(245, 245, 245); transform-origin: 250px 449.41px;" class="animable"></ellipse></g></g><g id="freepik--Character--inject-6" class="animable" style="transform-origin: 243.435px 266.93px;"><g id="elb7njvgs29hi"><path d="M233.62,179.54c-2.67-.73-2.72-4.16-2.72-4.16l2.56.51A11.57,11.57,0,0,0,233.62,179.54Z" style="opacity: 0.12; transform-origin: 232.26px 177.46px;" class="animable" id="elyxsa4reqyr"></path></g><path d="M374.26,86.05V230.21a8.06,8.06,0,0,1-8.06,8.06H148.35a8.05,8.05,0,0,1-8-8.06V86.05a8.05,8.05,0,0,1,8-8.06H366.2A8.06,8.06,0,0,1,374.26,86.05Z" style="fill: #C3EB78; transform-origin: 257.305px 158.13px;" id="elo5iat6sj8eb" class="animable"></path><g id="el2tyemaoe0ay"><path d="M374.26,86.05V230.21a8.06,8.06,0,0,1-8.06,8.06H148.35a8.05,8.05,0,0,1-8-8.06V86.05a8.05,8.05,0,0,1,8-8.06H366.2A8.06,8.06,0,0,1,374.26,86.05Z" style="fill: rgb(255, 255, 255); stroke: rgb(255, 255, 255); stroke-miterlimit: 10; opacity: 0.7; transform-origin: 257.305px 158.13px;" class="animable" id="el1mzx9zhxbzc"></path></g><circle cx="360.7" cy="87.93" r="2.17" style="fill: #C3EB78; transform-origin: 360.7px 87.93px;" id="elg4lwg9zr8k" class="animable"></circle><path d="M350.33,87.93a2.18,2.18,0,1,1-2.18-2.17A2.19,2.19,0,0,1,350.33,87.93Z" style="fill: #C3EB78; transform-origin: 348.15px 87.94px;" id="elap7rii0rm6e" class="animable"></path><path d="M337.78,87.93a2.18,2.18,0,1,1-2.18-2.17A2.19,2.19,0,0,1,337.78,87.93Z" style="fill: #C3EB78; transform-origin: 335.6px 87.94px;" id="el18uxtc24vuw" class="animable"></path><path d="M357.12,115.31V259.47a8.05,8.05,0,0,1-8.05,8H131.21a8.05,8.05,0,0,1-8.05-8V115.31a8.06,8.06,0,0,1,8.05-8.06H349.07A8.06,8.06,0,0,1,357.12,115.31Z" style="fill: #C3EB78; transform-origin: 240.14px 187.36px;" id="el9qf9fcaeihj" class="animable"></path><g id="ellitz5t0juvl"><path d="M357.12,115.31V259.47a8.05,8.05,0,0,1-8.05,8H131.21a8.05,8.05,0,0,1-8.05-8V115.31a8.06,8.06,0,0,1,8.05-8.06H349.07A8.06,8.06,0,0,1,357.12,115.31Z" style="fill: rgb(255, 255, 255); opacity: 0.8; transform-origin: 240.14px 187.36px;" class="animable" id="elv0n228e48sq"></path></g><rect x="304.94" y="124.17" width="52.19" height="131.88" style="fill: #C3EB78; transform-origin: 331.035px 190.11px;" id="elvi9m8jvmk4o" class="animable"></rect><g id="elq8az9q5g5c"><rect x="304.94" y="124.17" width="52.19" height="131.88" style="opacity: 0.2; transform-origin: 331.035px 190.11px;" class="animable" id="elzpkreazz35l"></rect></g><rect x="304.94" y="163.78" width="52.19" height="1.68" style="fill: rgb(250, 250, 250); transform-origin: 331.035px 164.62px;" id="elbihfveusy6e" class="animable"></rect><rect x="304.94" y="205.17" width="52.19" height="1.68" style="fill: rgb(250, 250, 250); transform-origin: 331.035px 206.01px;" id="el7bo36qhh7fl" class="animable"></rect><rect x="304.94" y="245.95" width="52.19" height="1.68" style="fill: rgb(250, 250, 250); transform-origin: 331.035px 246.79px;" id="elcxk2d7pxclm" class="animable"></rect><polygon points="327.7 175.32 327.7 195.02 342.58 185.17 327.7 175.32" style="fill: rgb(250, 250, 250); transform-origin: 335.14px 185.17px;" id="elpzoxwady4ho" class="animable"></polygon><polygon points="327.7 216.54 327.7 236.25 342.58 226.4 327.7 216.54" style="fill: rgb(250, 250, 250); transform-origin: 335.14px 226.395px;" id="elg92nbxuyn6" class="animable"></polygon><polygon points="327.7 133.37 327.7 153.08 342.58 143.22 327.7 133.37" style="fill: rgb(250, 250, 250); transform-origin: 335.14px 143.225px;" id="el0y275d2hl5dp" class="animable"></polygon><path d="M199.68,205.17s-13.34,19.89-17.5,23.84c0,0-22.36,2-31.56-4.29l-2.33,5.71s21.24,12,35.63,9.07,25-30.71,25-30.71Z" style="fill: rgb(181, 91, 82); transform-origin: 178.605px 222.565px;" id="el2wbydqesz1a" class="animable"></path><path d="M264.51,193.34s12.75,3.49,20.7,4.16c0,0,6-13.93,7-26.58l4.52.25s4.16,24.64-6.75,34.62c-7.54,6.91-32.7-5.89-32.7-5.89Z" style="fill: rgb(181, 91, 82); transform-origin: 277.394px 189.378px;" id="el3a1octqeo05" class="animable"></path><path d="M228.63,139s-17.28-1.67-19.07,15.94a65.63,65.63,0,0,0,5.14,32s10.45,21.27,23.12,18.31,23.41-9.82,21.17-21.3-6.41-11-6.26-27S237.87,131.66,228.63,139Z" style="fill: rgb(38, 50, 56); transform-origin: 234.29px 170.992px;" id="el00c9atrnvaako" class="animable"></path><path d="M247.49,164.22c-1.81,8.83-5.84,12.35-14,11.67a11.57,11.57,0,0,0,.16,3.65,6.69,6.69,0,0,0,5.7,5.69c7,1.21,3.17,10.22,3.17,10.22l-7,3.44-9.21-5.31-7-7.47,2.45,0s4.74-7.17,0-19.24a7.42,7.42,0,0,1-3.65-5.85c-.2-4,3.93-4.24,5.49-2.74,0,0,7.11-3.1,6.05-15.08,0,0,7,5.26,16,3.73C245.64,147,249.29,155.38,247.49,164.22Z" style="fill: rgb(181, 91, 82); transform-origin: 233.046px 171.045px;" id="elclp8g65ufo8" class="animable"></path><path d="M241.06,156.87l.09,6.18a3.73,3.73,0,0,0,3.08-.18Z" style="fill: rgb(160, 39, 36); transform-origin: 242.645px 160.085px;" id="elauesaghogib" class="animable"></path><path d="M231.59,149.92a.41.41,0,0,1-.18,0,.34.34,0,0,1-.11-.47,3.69,3.69,0,0,1,4.44-1.41.33.33,0,0,1,.21.43.34.34,0,0,1-.43.21,3,3,0,0,0-3.64,1.12A.34.34,0,0,1,231.59,149.92Z" style="fill: rgb(38, 50, 56); transform-origin: 233.609px 148.856px;" id="el7wgbmmlovtr" class="animable"></path><path d="M247.07,151.83a.36.36,0,0,1-.24-.09c-1-.91-2.74-.24-2.76-.23a.35.35,0,0,1-.44-.2.34.34,0,0,1,.2-.44c.08,0,2.19-.83,3.47.37a.34.34,0,0,1,0,.48A.36.36,0,0,1,247.07,151.83Z" style="fill: rgb(38, 50, 56); transform-origin: 245.503px 151.21px;" id="el5i6ijtx66yh" class="animable"></path><path d="M238.43,166h0a6.63,6.63,0,0,1-5.88-3.08.26.26,0,0,1,.45-.24,6.14,6.14,0,0,0,5.44,2.81.25.25,0,0,1,.25.25A.26.26,0,0,1,238.43,166Z" style="fill: rgb(38, 50, 56); transform-origin: 235.614px 164.295px;" id="elm97f8vzydss" class="animable"></path><path d="M236.64,155.81c0,.74-.37,1.34-.87,1.36s-.92-.57-.94-1.31.36-1.34.86-1.36S236.62,155.07,236.64,155.81Z" style="fill: rgb(38, 50, 56); transform-origin: 235.735px 155.835px;" id="ele5ge9bc5n0h" class="animable"></path><path d="M245.53,155.89c0,.73-.37,1.34-.87,1.36s-.92-.57-.95-1.31.37-1.34.87-1.36S245.51,155.15,245.53,155.89Z" style="fill: rgb(38, 50, 56); transform-origin: 244.619px 155.915px;" id="el08ntggn4koy5" class="animable"></path><path d="M235.55,154.53l2.27-.65S237.41,155.1,235.55,154.53Z" style="fill: rgb(38, 50, 56); transform-origin: 236.685px 154.281px;" id="elh9vyutl4xc9" class="animable"></path><path d="M244.58,154.58l1.67-.24A1,1,0,0,1,244.58,154.58Z" style="fill: rgb(38, 50, 56); transform-origin: 245.415px 154.634px;" id="eltnctpty03b" class="animable"></path><path d="M268.83,192.94,261,210.18l-4.16-1.51s.42,31.3-3,47.38H213.14l-2.34-42.72-2.13,4.46-15-8.42s4.15-17,10.63-20c3.09-1.43,9.68-2.53,16.46-3.24a142.22,142.22,0,0,1,18.61-.88s.64,0,1.77,0A62.1,62.1,0,0,1,268.83,192.94Z" style="fill: #C3EB78; transform-origin: 231.25px 220.638px;" id="elqyaqxj5lmvq" class="animable"></path><path d="M292.21,170.92a17.74,17.74,0,0,1-3-7.36,18.12,18.12,0,0,1,.77-8.49l8.08-.28,1,7.07a13.5,13.5,0,0,1-2.31,9.31Z" style="fill: rgb(181, 91, 82); transform-origin: 294.086px 162.98px;" id="eldqap4z79wzt" class="animable"></path><path d="M150.62,224.72l-4.21-7.51-5.12-1.78-3.64,6.8,3.25,4.46s4.29,3.64,7.39,3.74Z" style="fill: rgb(181, 91, 82); transform-origin: 144.135px 222.93px;" id="elcwvwfwngzmm" class="animable"></path><path d="M241.09,185.25c-.07,10.78-6.81,22.59-6.81,22.59-6-5.79-12-18.21-13.57-21.73a142.22,142.22,0,0,1,18.61-.88S240,185.21,241.09,185.25Z" style="fill: rgb(181, 91, 82); transform-origin: 230.9px 196.523px;" id="el8hizswzq766" class="animable"></path><g id="elk5nswgblhun"><polygon points="208.66 217.79 210.76 206.22 210.8 213.34 208.66 217.79" style="opacity: 0.12; transform-origin: 209.73px 212.005px;" class="animable" id="ellev551h03c"></polygon></g><g id="elnx3e3sp3hh"><polygon points="261.02 210.18 254.3 205.17 256.86 208.67 261.02 210.18" style="opacity: 0.12; transform-origin: 257.66px 207.675px;" class="animable" id="eli9ow57jrkwm"></polygon></g><polygon points="216.75 396.34 226.37 406.75 204.05 427.98 196.09 422.32 216.75 396.34" style="fill: rgb(181, 91, 82); transform-origin: 211.23px 412.16px;" id="elovns4nrnmjj" class="animable"></polygon><path d="M206,427.48c.54,3.24,1.33,6.85,5.93,13.19,1,1.41-1.66,4.05-4.67,1.26s-7.33-7.17-9.51-9.18c-3.55-3.29-5-4.38-7.89-6.94a.63.63,0,0,1-.12-.11,1.51,1.51,0,0,1,.05-2.14l6.33-5.13a.75.75,0,0,1,1,.07l8.07,7.46A2.77,2.77,0,0,1,206,427.48Z" style="fill: rgb(38, 50, 56); transform-origin: 200.732px 430.715px;" id="elig65yhrntr" class="animable"></path><path d="M204.79,427.29a.24.24,0,0,1,0-.26A.24.24,0,0,1,205,427c.46.15,4.57,1.42,5,2.68a.73.73,0,0,1-.11.7,1.13,1.13,0,0,1-1,.49,3.88,3.88,0,0,1-2.09-1.2A17.46,17.46,0,0,1,204.79,427.29Zm.77.3c1.37,1.74,2.61,2.78,3.37,2.78a.73.73,0,0,0,.66-.33.27.27,0,0,0,0-.27,1.07,1.07,0,0,0-.27-.36A13.24,13.24,0,0,0,205.56,427.59Z" style="fill: #C3EB78; transform-origin: 207.398px 428.93px;" id="el3bjp69cnnac" class="animable"></path><path d="M204.73,427.2a.21.21,0,0,1,.06-.21c.07-.07,1.88-1.73,3.42-1.6a1.76,1.76,0,0,1,1.19.6c.43.49.36.84.23,1-.57.89-3.56.78-4.75.35l-.08-.05A.33.33,0,0,1,204.73,427.2Zm3.47-1.36a4.84,4.84,0,0,0-2.8,1.24c1.32.31,3.5.22,3.84-.31,0,0,.11-.17-.17-.49l-.1-.1A1.29,1.29,0,0,0,208.2,425.84Z" style="fill: #C3EB78; transform-origin: 207.226px 426.523px;" id="el51akcuin3ph" class="animable"></path><polygon points="212.38 415.35 225.49 415.16 223.67 448.11 214.24 447.78 212.38 415.35" style="fill: rgb(181, 91, 82); transform-origin: 218.935px 431.635px;" id="el56qx3povu49" class="animable"></polygon><path d="M225.89,445.68c2.67,2.1,4,4.31,11.48,5.94,1.67.37,1.72,4.28-2.23,4.25s-8.16-.38-11-.38c-4.65,0-6.42.21-10.1.21h0a1.66,1.66,0,0,1-1.63-1.69l.64-8.34a.68.68,0,0,1,.71-.64l10.59.07A2.66,2.66,0,0,1,225.89,445.68Z" style="fill: rgb(38, 50, 56); transform-origin: 225.427px 450.45px;" id="elvlbnft49sn" class="animable"></path><path d="M219.75,244.23c-1.14,20.45,25.74,81.58,28.74,103C239.23,368.74,215,396.16,215,396.16l11.48,12.52s40.2-35.83,42.29-60.8c1.74-21.35-13.36-101.6-13.36-101.6Z" style="fill: #C3EB78; transform-origin: 241.955px 326.455px;" id="el3qrukr3wzzb" class="animable"></path><path d="M219.75,244.23c-1.14,20.45,25.74,81.58,28.74,103C239.23,368.74,215,396.16,215,396.16l11.48,12.52s40.2-35.83,42.29-60.8c1.74-21.35-13.36-101.6-13.36-101.6Z" style="fill: rgb(38, 50, 56); transform-origin: 241.955px 326.455px;" id="el3qlvc2b4gvm" class="animable"></path><polygon points="215.3 393.24 230.32 407.5 226.27 410.04 212.53 397.68 215.3 393.24" style="fill: #C3EB78; transform-origin: 221.425px 401.64px;" id="el6uafnadzu1g" class="animable"></polygon><g id="eldqelqun4ti"><path d="M228.4,283.05c6.3,19.46,14.38,40.65,18.16,55.12.69-15.74.16-43.78-10.85-59C230.57,272,228.54,275.57,228.4,283.05Z" style="opacity: 0.3; isolation: isolate; transform-origin: 237.58px 306.722px;" class="animable" id="elbek3kxp6tah"></path></g><path d="M212.9,244.47c-7.81,21.51-1.73,70.07-1.31,104.87-2.34,26.23.79,66,.79,66l14.1.58s4.25-46.94,7.15-76.23c2.46-24.66,11.24-94,11.24-94Z" style="fill: #C3EB78; transform-origin: 226.905px 330.195px;" id="elna5w5psr68a" class="animable"></path><path d="M212.46,243.72c-7.81,21.5-1.29,70.82-.87,105.62-2.34,26.23.79,66,.79,66l14.1.58s4.25-46.94,7.15-76.23c2.46-24.66,11.24-94,11.24-94Z" style="fill: rgb(38, 50, 56); transform-origin: 226.756px 329.82px;" id="el3b7hexrkz33" class="animable"></path><polygon points="210.33 411.88 228.61 412.39 227.48 417.47 211.32 417.93 210.33 411.88" style="fill: #C3EB78; transform-origin: 219.47px 414.905px;" id="elf8xg5q6i6i" class="animable"></polygon><path d="M229.42,446.34c-.84.81-3,.42-4.28.13a.27.27,0,0,1-.18-.19.22.22,0,0,1,.09-.22c.3-.21,3-2,4.17-1.53a.8.8,0,0,1,.48.64,1.18,1.18,0,0,1-.2,1A.29.29,0,0,1,229.42,446.34Zm-3.66-.24c1.66.34,2.89.29,3.34-.12a.79.79,0,0,0,.16-.79.31.31,0,0,0-.2-.29c-.59-.26-2.19.53-3.3,1.23Z" style="fill: #C3EB78; transform-origin: 227.346px 445.637px;" id="elmnd17ipw6aa" class="animable"></path><path d="M225.3,446.39a.28.28,0,0,1-.22,0,.29.29,0,0,1-.13-.19c0-.12-.16-2.83.79-3.73a1.06,1.06,0,0,1,.93-.29.85.85,0,0,1,.79.63,3.56,3.56,0,0,1-1.05,2.54A4.77,4.77,0,0,1,225.3,446.39Zm.08-.62c.86-.71,1.82-2.23,1.65-2.88a.35.35,0,0,0-.39-.27.63.63,0,0,0-.58.19l-.09.1A5.35,5.35,0,0,0,225.38,445.77Z" style="fill: #C3EB78; transform-origin: 226.2px 444.288px;" id="elpzev7m8x5o" class="animable"></path><rect x="218.38" y="183.77" width="3.45" height="20.32" style="fill: rgb(250, 250, 250); transform-origin: 220.105px 193.93px;" id="ellmhdfhgjnr" class="animable"></rect><rect x="210.3" y="183.77" width="3.45" height="20.32" style="fill: rgb(250, 250, 250); transform-origin: 212.025px 193.93px;" id="eluw8wede0ef" class="animable"></rect><g id="elw4v1y6dwrm"><circle cx="215.73" cy="193.65" r="16.53" style="fill: none; stroke: rgb(250, 250, 250); stroke-miterlimit: 10; transform-origin: 215.73px 193.65px; transform: rotate(-76.6608deg);" class="animable" id="eli0su17zrj1k"></circle></g><path d="M357.12,115.31v8.86h-234v-8.86a8.06,8.06,0,0,1,8.05-8.06H349.07A8.06,8.06,0,0,1,357.12,115.31Z" style="fill: #C3EB78; transform-origin: 240.12px 115.71px;" id="elbubeucwhilf" class="animable"></path><path d="M357.12,256.05v3.42a8.05,8.05,0,0,1-8.05,8H131.21a8.05,8.05,0,0,1-8.05-8v-3.42Z" style="fill: #C3EB78; transform-origin: 240.14px 261.76px;" id="elfbhjaob1jm7" class="animable"></path><path d="M169.36,120.1H135.18a3.71,3.71,0,0,1-3.71-3.7h0a3.71,3.71,0,0,1,3.71-3.71h34.18a3.71,3.71,0,0,1,3.71,3.71h0A3.71,3.71,0,0,1,169.36,120.1Z" style="fill: none; stroke: rgb(255, 255, 255); stroke-miterlimit: 10; stroke-width: 0.5px; transform-origin: 152.27px 116.395px;" id="els56msdtturq" class="animable"></path><path d="M187.92,120.1h-5a3.7,3.7,0,0,1-3.7-3.7h0a3.71,3.71,0,0,1,3.7-3.71h5a3.71,3.71,0,0,1,3.71,3.71h0A3.71,3.71,0,0,1,187.92,120.1Z" style="fill: none; stroke: rgb(255, 255, 255); stroke-miterlimit: 10; stroke-width: 0.5px; transform-origin: 185.425px 116.395px;" id="elslp8fhqdhfl" class="animable"></path><rect x="128.61" y="128.72" width="171.42" height="123.52" rx="15.04" style="fill: none; stroke: rgb(255, 255, 255); stroke-miterlimit: 10; stroke-width: 0.5px; transform-origin: 214.32px 190.48px;" id="elpr1ff5rljxa" class="animable"></rect><rect x="112.61" y="139.38" width="76.91" height="38.02" rx="8.25" style="fill: #C3EB78; transform-origin: 151.065px 158.39px;" id="elxk9go07oavi" class="animable"></rect><path d="M192.46,145.87v25A6.48,6.48,0,0,1,186,177.4H162.83c-7,2.42-2.62,12.11-2.47,12.46a12.64,12.64,0,0,1-3.69-2c-5-4-4.3-10.45-4.3-10.45H122a6.49,6.49,0,0,1-6.49-6.49v-25a6.49,6.49,0,0,1,6.49-6.49H186A6.48,6.48,0,0,1,192.46,145.87Z" style="fill: #C3EB78; transform-origin: 153.985px 164.645px;" id="el7yz3jzoxx1q" class="animable"></path><g id="el5dfk4scygax"><path d="M189.51,145.87v25A6.48,6.48,0,0,1,183,177.4H159.88c-5.12,1.76-4.16,7.4-3.21,10.45-5-4-4.3-10.45-4.3-10.45H119.09a6.48,6.48,0,0,1-6.48-6.49v-25a6.48,6.48,0,0,1,6.48-6.49H183A6.48,6.48,0,0,1,189.51,145.87Z" style="fill: rgb(255, 255, 255); opacity: 0.2; transform-origin: 151.06px 163.635px;" class="animable" id="el8rl7aix79jg"></path></g><rect x="118.2" y="145.42" width="65.32" height="3.46" style="fill: #C3EB78; transform-origin: 150.86px 147.15px;" id="el353rc1xpj9j" class="animable"></rect><rect x="118.2" y="151.77" width="65.32" height="3.46" style="fill: #C3EB78; transform-origin: 150.86px 153.5px;" id="eli8a4ue2tnic" class="animable"></rect><rect x="118.2" y="158.13" width="65.32" height="3.46" style="fill: #C3EB78; transform-origin: 150.86px 159.86px;" id="elss5wgm92oi" class="animable"></rect><g id="elof3a61t37xm"><rect x="118.2" y="145.42" width="65.32" height="3.46" style="opacity: 0.1; transform-origin: 150.86px 147.15px;" class="animable" id="elqvhpm0m7n9"></rect></g><g id="elexaw76730nt"><rect x="118.2" y="151.77" width="65.32" height="3.46" style="opacity: 0.1; transform-origin: 150.86px 153.5px;" class="animable" id="eltbi4q14gn5c"></rect></g><g id="elz1bsrmphj9"><rect x="118.2" y="158.13" width="65.32" height="3.46" style="opacity: 0.1; transform-origin: 150.86px 159.86px;" class="animable" id="el7s11e7ynik9"></rect></g></g><defs>     <filter id="active" height="200%">         <feMorphology in="SourceAlpha" result="DILATED" operator="dilate" radius="2"></feMorphology>                <feFlood flood-color="#32DFEC" flood-opacity="1" result="PINK"></feFlood>        <feComposite in="PINK" in2="DILATED" operator="in" result="OUTLINE"></feComposite>        <feMerge>            <feMergeNode in="OUTLINE"></feMergeNode>            <feMergeNode in="SourceGraphic"></feMergeNode>        </feMerge>    </filter>    <filter id="hover" height="200%">        <feMorphology in="SourceAlpha" result="DILATED" operator="dilate" radius="2"></feMorphology>                <feFlood flood-color="#ff0000" flood-opacity="0.5" result="PINK"></feFlood>        <feComposite in="PINK" in2="DILATED" operator="in" result="OUTLINE"></feComposite>        <feMerge>            <feMergeNode in="OUTLINE"></feMergeNode>            <feMergeNode in="SourceGraphic"></feMergeNode>        </feMerge>            <feColorMatrix type="matrix" values="0   0   0   0   0                0   1   0   0   0                0   0   0   0   0                0   0   0   1   0 "></feColorMatrix>    </filter></defs></svg>